<svg width="33" height="40" viewBox="0 0 33 40" fill="none" xmlns="http://www.w3.org/2000/svg">
<path d="M8.28886 15.7886C11.4749 15.0227 15.2793 12.4095 17.0048 11.3438C17.1658 11.2444 17.3691 11.3596 17.3727 11.5488L17.7313 30.8545C17.7342 31.0113 17.5927 31.1314 17.4384 31.1031L9.90506 29.7183C9.68586 29.678 9.46587 29.2595 9.48927 29.0378C9.7108 26.9394 8.64939 19.773 8.09637 16.0671C8.07705 15.9376 8.16154 15.8192 8.28886 15.7886Z" fill="#FFA300"/>
<path d="M17.9837 31.4682L7.46669 29.6445C7.34518 29.6234 7.25772 29.5192 7.25945 29.3958C7.30866 25.8796 6.24526 18.3752 5.67058 14.8338C5.6536 14.7292 5.70533 14.6283 5.79875 14.5782L17.5496 8.27441M17.9837 31.4682L31.4974 27.7382C31.6094 27.7072 31.6851 27.6061 31.6795 27.4901C31.4692 23.1538 31.2473 14.8465 31.8598 12.8694C31.9102 12.7069 31.8312 12.5055 31.6676 12.4587C27.2179 11.1858 18.6623 8.70985 17.5496 8.27441M17.9837 31.4682L17.5496 8.27441" stroke="black" stroke-width="1.24031"/>
<path d="M9.86133 8.46035C10.0598 6.2774 11.143 3.78851 11.6598 2.81694L12.3419 2.38283L14.6365 2.13477L16.683 3.37508L17.0551 4.18128L12.59 7.09601L9.86133 9.14252V8.46035Z" fill="#FFA300"/>
<path d="M11.4113 2.50708C11.7194 2.31011 12.1294 2.11387 12.5992 1.97753C19.8606 -0.9481 23.6619 3.37255 24.6826 6.04197L17.4268 4.1815C16.0771 1.70711 14.0522 1.55584 12.5992 1.97753C12.213 2.13311 11.8171 2.30918 11.4113 2.50708Z" fill="#FFA300"/>
<path d="M9.36476 9.26677C9.53014 7.73706 10.171 4.24352 11.4113 2.50708M11.4113 2.50708C12.6723 1.70088 15.6407 0.907083 17.4268 4.1815M11.4113 2.50708C19.4485 -1.4123 23.6077 3.2306 24.6826 6.04197L17.4268 4.1815M17.4268 4.1815L9.05469 9.63887" stroke="black" stroke-width="1.24031"/>
<path d="M22.5825 12.815L21.953 12.9724C21.796 13.0116 21.7193 13.1899 21.7882 13.3365C22.7456 15.3711 21.3194 15.7922 20.2496 15.7412C20.1001 15.7341 19.9688 15.8491 19.9688 15.9988V18.174C19.9688 18.2292 19.9871 18.2828 20.021 18.3263L20.3205 18.7114C20.3719 18.7775 20.4546 18.8131 20.5379 18.8059C22.5114 18.6337 23.0194 18.3388 23.0364 18.1555C23.0418 18.0976 23.0068 18.0413 23.0054 17.9832L22.8907 13.0499C22.887 12.8909 22.7368 12.7764 22.5825 12.815Z" fill="black"/>
<path d="M29.1352 15.0023L28.4021 15.2116C28.2674 15.2501 28.1923 15.3927 28.2278 15.5282C28.5498 16.7547 28.1707 17.4427 27.4597 17.4742C27.3052 17.481 27.1639 17.5947 27.164 17.7494L27.1646 18.6878C27.1646 18.7687 27.2041 18.8445 27.2704 18.8909L27.7848 19.251C28.591 19.6851 28.9011 19.8106 29.0872 19.8106C29.3565 19.8106 29.3565 19.6851 29.3565 19.4678L29.4513 15.2463C29.455 15.0793 29.2959 14.9564 29.1352 15.0023Z" fill="black"/>
<path d="M23.3798 23.5923C26.3069 24.1877 28.3617 22.6414 29.0232 21.7939C29.1684 21.6078 29.7052 21.5458 29.4571 22.228C29.2102 22.9069 28.3615 23.9437 27.9067 24.3365C27.5098 24.3861 27.0385 25.2254 26.8525 25.6388C25.9098 27.276 23.8137 27.2719 22.8835 27.0652C22.2427 26.8791 20.862 26.2094 20.4651 25.0187C20.0682 23.828 20.1343 22.3727 20.217 21.7939C20.5147 21.0497 20.8372 21.2357 20.9612 21.4218C21.1597 23.1086 22.6563 23.5716 23.3798 23.5923Z" fill="black"/>
<path d="M17.2716 32.7123C17.2922 32.7098 17.313 32.7098 17.3336 32.7125L25.0286 33.6974C25.0459 33.6996 25.0628 33.7036 25.0792 33.7094L30.3886 35.5704C30.6114 35.6485 30.6094 35.9643 30.3856 36.0396L24.6204 37.9798L16.5447 39.5826C16.5128 39.589 16.48 39.589 16.4481 39.5826L9.32146 38.1696C9.30891 38.1671 9.29656 38.1637 9.28453 38.1593L4.13726 36.2775C3.92438 36.1996 3.91879 35.9006 4.12861 35.8148L9.27205 33.7132C9.29233 33.7049 9.31361 33.6994 9.33535 33.6967L17.2716 32.7123Z" fill="#FFA300"/>
<path d="M13.891 31.0342L12.9608 32.5226L9.30184 32.1505L7.9375 34.4451M21.4569 30.6001L23.6894 31.7164L24.5577 34.011L27.0383 33.0807" stroke="black" stroke-width="1.48837" stroke-linecap="round" stroke-linejoin="round"/>
<path d="M3.65891 16.8326C3.85736 16.0388 3.57623 15.1789 3.41085 14.8481L0 15.5303C0.0992248 16.2745 0.702842 16.9567 0.992248 17.2047L3.65891 16.8326Z" fill="black"/>
<path d="M4.15157 22.992C4.49864 22.251 4.38773 21.3531 4.28888 20.9967L0.810517 21.0118C0.76511 21.7612 1.22662 22.5465 1.46306 22.8455L4.15157 22.992Z" fill="black"/>
<path d="M4.62909 28.9002C5.02985 28.1868 4.98545 27.2831 4.91316 26.9205L1.44315 26.679C1.3426 27.423 1.74495 28.2402 1.9587 28.5558L4.62909 28.9002Z" fill="black"/>
</svg>
