<svg width="51" height="51" viewBox="0 0 51 51" fill="none" xmlns="http://www.w3.org/2000/svg">
<circle cx="25.5" cy="25.5" r="25.5" transform="matrix(-1 0 0 1 51 0)" fill="url(#paint0_linear_232_6303)"/>
<mask id="mask0_232_6303" style="mask-type:luminance" maskUnits="userSpaceOnUse" x="0" y="0" width="51" height="51">
<circle cx="25.5" cy="25.5" r="25.5" transform="matrix(-1 0 0 1 51 0)" fill="white"/>
</mask>
<g mask="url(#mask0_232_6303)">
<path fill-rule="evenodd" clip-rule="evenodd" d="M30.7693 29.5802C30.7693 29.5802 30.7693 29.5802 30.7693 31.6202C30.7693 34.3402 34.6793 35.5302 34.6793 35.5302C34.6793 35.5302 30.1743 38.9302 25.4993 38.9302C20.8243 38.9302 16.3193 35.5302 16.3193 35.5302C16.3193 35.5302 20.26 34.3402 20.2293 31.6202C20.1986 28.9002 20.2191 27.3025 20.1986 22.6421C17.7622 19.4841 17.9185 17.3645 19.2508 15.8739C23.7143 10.8802 35.8693 12.5802 35.8693 12.5802C35.8693 12.5802 37.0036 24.8189 34.4243 28.3902C33.3193 29.9202 30.7693 29.5802 30.7693 29.5802Z" fill="url(#paint1_linear_232_6303)"/>
<g style="mix-blend-mode:multiply" opacity="0.6">
<path fill-rule="evenodd" clip-rule="evenodd" d="M30.7703 29.581C27.0303 29.156 24.8203 27.541 24.8203 27.541C24.8203 27.541 26.6903 30.686 30.7703 31.621V29.581Z" fill="url(#paint2_linear_232_6303)"/>
</g>
<path d="M43.3496 40.6822C44.9681 43.9728 45.8996 51.5622 45.8996 51.5622H5.09961C5.09961 51.5622 6.03162 43.972 7.64961 40.6822C9.2676 37.3924 18.7165 34.341 18.7165 34.341C20.5378 38.0807 30.5329 38.0803 32.2776 34.3398C32.2776 34.3398 41.7312 37.3915 43.3496 40.6822Z" fill="url(#paint3_linear_232_6303)"/>
<path d="M25.5 46.5801C25.8754 46.5801 26.1795 46.8844 26.1797 47.2598C26.1797 47.6353 25.8756 47.9404 25.5 47.9404C25.1245 47.9404 24.8203 47.6353 24.8203 47.2598C24.8205 46.8844 25.1246 46.5801 25.5 46.5801ZM25.5 43.1816C25.8756 43.1816 26.1797 43.4868 26.1797 43.8623C26.1794 44.2376 25.8754 44.542 25.5 44.542C25.1247 44.5419 24.8206 44.2376 24.8203 43.8623C24.8203 43.4868 25.1245 43.1817 25.5 43.1816ZM25.5 39.7812C25.8755 39.7812 26.1805 40.0855 26.1807 40.4609C26.1807 40.8365 25.8756 41.1416 25.5 41.1416C25.1245 41.1415 24.8203 40.8364 24.8203 40.4609C24.8205 40.0856 25.1246 39.7814 25.5 39.7812Z" fill="white"/>
<path d="M22.2971 17.5471C21.7565 17.0827 21.0996 16.7702 20.1711 17.2526C17.9697 18.3964 19.6358 22.7816 21.5908 22.7816C22.1009 22.7816 22.3545 24.3834 20.0837 25.5021C20.0837 23.7171 17.3637 19.2971 17.1264 15.2728C14.3887 14.2537 15.0687 10.1759 16.9485 10.1759C16.6478 6.43737 22.6337 4.50714 24.9514 6.65186C27.3087 3.82714 33.2587 5.27214 33.618 7.72268C37.7093 5.53856 40.3987 11.8171 36.5677 14.2537C34.9914 15.2563 31.3037 15.6384 25.9805 15.6384C25.177 15.6384 24.7269 15.8379 24.9514 16.8316C25.3866 18.7569 24.3766 19.9698 22.2971 17.5471Z" fill="url(#paint4_linear_232_6303)"/>
</g>
<defs>
<linearGradient id="paint0_linear_232_6303" x1="51" y1="51" x2="51" y2="0" gradientUnits="userSpaceOnUse">
<stop stop-color="#FFC9B3"/>
<stop offset="1" stop-color="#FFD2C2"/>
</linearGradient>
<linearGradient id="paint1_linear_232_6303" x1="16.3193" y1="12.1484" x2="16.3193" y2="38.9302" gradientUnits="userSpaceOnUse">
<stop stop-color="#E6864E"/>
<stop offset="1" stop-color="#EB965E"/>
</linearGradient>
<linearGradient id="paint2_linear_232_6303" x1="26.9623" y1="27.6016" x2="25.9222" y2="31.5475" gradientUnits="userSpaceOnUse">
<stop stop-color="#E07A3F"/>
<stop offset="1" stop-color="#EB9154"/>
</linearGradient>
<linearGradient id="paint3_linear_232_6303" x1="5.09961" y1="34.3398" x2="5.09961" y2="51.5622" gradientUnits="userSpaceOnUse">
<stop stop-color="#1D0024"/>
<stop offset="1" stop-color="#100014"/>
</linearGradient>
<linearGradient id="paint4_linear_232_6303" x1="15.3008" y1="5.10156" x2="15.3008" y2="25.5021" gradientUnits="userSpaceOnUse">
<stop stop-color="#1D0024"/>
<stop offset="1" stop-color="#100014"/>
</linearGradient>
</defs>
</svg>
