<svg width="14" height="14" viewBox="0 0 14 14" fill="none" xmlns="http://www.w3.org/2000/svg">
<path d="M9.33333 6.41602L7 2.91602M7 11.666L1.75 6.41602L7 11.666ZM7 11.666L12.25 6.41602L7 11.666ZM7 11.666L4.66667 6.41602L7 11.666ZM7 11.666L9.33333 6.41602L7 11.666ZM1.75 6.41602L4.08333 2.91602L1.75 6.41602ZM1.75 6.41602H4.66667H1.75ZM4.08333 2.91602L4.66667 6.41602L4.08333 2.91602ZM4.08333 2.91602H7H4.08333ZM9.91667 2.91602L12.25 6.41602L9.91667 2.91602ZM9.91667 2.91602L9.33333 6.41602L9.91667 2.91602ZM9.91667 2.91602H7H9.91667ZM12.25 6.41602H9.33333H12.25ZM4.66667 6.41602H9.33333H4.66667ZM4.66667 6.41602L7 2.91602L4.66667 6.41602Z" stroke="#009B3B" stroke-width="0.7" stroke-linecap="round" stroke-linejoin="round"/>
</svg>
