<svg width="25" height="25" viewBox="0 0 25 25" fill="none" xmlns="http://www.w3.org/2000/svg">
<g clip-path="url(#clip0_224_718)">
<path d="M24.2663 13.1644C24.2663 12.3487 24.2001 11.5286 24.059 10.7261H12.7402V15.3471H19.222C18.953 16.8374 18.0888 18.1558 16.8233 18.9936V21.9919H20.6903C22.9611 19.9019 24.2663 16.8154 24.2663 13.1644Z" fill="#4285F4"/>
<path d="M12.7401 24.889C15.9766 24.889 18.7059 23.8264 20.6945 21.9921L16.8276 18.9937C15.7517 19.7257 14.3627 20.1402 12.7445 20.1402C9.61388 20.1402 6.95946 18.0281 6.00705 15.1885H2.0166V18.2794C4.05371 22.3316 8.2029 24.889 12.7401 24.889Z" fill="#34A853"/>
<path d="M6.00277 15.1884C5.50011 13.698 5.50011 12.0842 6.00277 10.5939V7.50293H2.01674C0.314734 10.8937 0.314734 14.8886 2.01674 18.2793L6.00277 15.1884Z" fill="#FBBC04"/>
<path d="M12.7401 5.63784C14.4509 5.61139 16.1044 6.25515 17.3434 7.43685L20.7695 4.0108C18.6001 1.97369 15.7208 0.853718 12.7401 0.888992C8.2029 0.888992 4.05371 3.44641 2.0166 7.50299L6.00264 10.5939C6.95064 7.74991 9.60947 5.63784 12.7401 5.63784Z" fill="#EA4335"/>
</g>
<defs>
<clipPath id="clip0_224_718">
<rect width="24" height="24" fill="white" transform="translate(0.5 0.888184)"/>
</clipPath>
</defs>
</svg>
