<svg width="24" height="24" viewBox="0 0 24 24" fill="none" xmlns="http://www.w3.org/2000/svg">
<path d="M19.6327 7.11036L13.1587 3.09036C12.8045 2.8692 12.3953 2.75195 11.9777 2.75195C11.5601 2.75195 11.1509 2.8692 10.7967 3.09036L4.3237 7.13336C3.95565 7.36545 3.66354 7.70016 3.48337 8.09622C3.30319 8.49228 3.24282 8.93241 3.3097 9.36236L4.9797 19.3894C5.06797 19.9143 5.34109 20.3903 5.7497 20.7314C6.15831 21.0725 6.67546 21.2563 7.2077 21.2494H16.7897C17.3221 21.2565 17.8395 21.0729 18.2483 20.7317C18.6571 20.3906 18.9304 19.9144 19.0187 19.3894L20.6887 9.36236C20.7559 8.9245 20.6911 8.47656 20.5027 8.07565C20.3142 7.67475 20.0107 7.33905 19.6307 7.11136" stroke="#1A1A1A" stroke-width="1.5" stroke-linecap="round" stroke-linejoin="round"/>
<line x1="8.5" y1="18.5" x2="15.5" y2="18.5" stroke="#1A1A1A" stroke-linecap="round"/>
</svg>
