<svg width="16" height="16" viewBox="0 0 16 16" fill="none" xmlns="http://www.w3.org/2000/svg">
<path d="M5.53855 4.4V3.92C5.53855 2.858 5.53855 2 7.50789 2H8.49189C10.4612 2 10.4612 2.858 10.4612 3.92V4.4M5.53855 14H10.4612C12.9346 14 13.3779 13.0333 13.5072 11.858L13.9686 7.058C14.1352 5.594 13.7039 4.4 11.0766 4.4H4.92322C2.29589 4.4 1.86522 5.594 2.03122 7.058L2.49255 11.858C2.62189 13.0333 3.06522 14 5.53855 14Z" stroke="white" stroke-linecap="round" stroke-linejoin="round"/>
<path d="M6.54158 8.88701C4.97939 8.7147 3.47837 8.1828 2.15625 7.33301M9.48958 8.88701C11.0518 8.7147 12.5528 8.1828 13.8749 7.33301M9.33358 8.99967C9.33358 9.3533 9.19311 9.69243 8.94306 9.94248C8.69301 10.1925 8.35387 10.333 8.00025 10.333C7.64663 10.333 7.30749 10.1925 7.05744 9.94248C6.80739 9.69243 6.66692 9.3533 6.66692 8.99967C6.66692 8.64605 6.80739 8.30691 7.05744 8.05687C7.30749 7.80682 7.64663 7.66634 8.00025 7.66634C8.35387 7.66634 8.69301 7.80682 8.94306 8.05687C9.19311 8.30691 9.33358 8.64605 9.33358 8.99967Z" stroke="white" stroke-linecap="round" stroke-linejoin="round"/>
</svg>
