<svg width="14" height="14" viewBox="0 0 14 14" fill="none" xmlns="http://www.w3.org/2000/svg">
<path d="M11.2295 1.60352H2.77116C2.46174 1.60352 2.16499 1.72643 1.9462 1.94522C1.72741 2.16402 1.60449 2.46076 1.60449 2.77018V11.2285C1.60449 11.5379 1.72741 11.8347 1.9462 12.0535C2.16499 12.2723 2.46174 12.3952 2.77116 12.3952H11.2295C11.5389 12.3952 11.8357 12.2723 12.0545 12.0535C12.2732 11.8347 12.3962 11.5379 12.3962 11.2285V2.77018C12.3962 2.46076 12.2732 2.16402 12.0545 1.94522C11.8357 1.72643 11.5389 1.60352 11.2295 1.60352Z" stroke="#1A1A1A" stroke-width="0.5" stroke-linecap="round" stroke-linejoin="round"/>
<path d="M4.64067 5.27539V7.42439C4.64067 7.81989 4.31984 8.14072 3.92434 8.14072C3.83027 8.14072 3.73712 8.1222 3.65021 8.0862C3.5633 8.0502 3.48433 7.99743 3.41782 7.93091C3.3513 7.8644 3.29853 7.78543 3.26254 7.69852C3.22654 7.61161 3.20801 7.51846 3.20801 7.42439V7.18639" stroke="#1A1A1A" stroke-width="0.5" stroke-linecap="round" stroke-linejoin="round"/>
<path d="M6.76958 6.95852C6.76958 6.5629 6.44887 6.24219 6.05325 6.24219C5.65763 6.24219 5.33691 6.5629 5.33691 6.95852V7.42402C5.33691 7.81964 5.65763 8.14035 6.05325 8.14035C6.44887 8.14035 6.76958 7.81964 6.76958 7.42402V6.95852Z" stroke="#1A1A1A" stroke-width="0.5" stroke-linecap="round" stroke-linejoin="round"/>
<path d="M9.56818 7.9806C9.69884 8.09056 9.84001 8.14072 10.1573 8.14072H10.3178C10.5794 8.14072 10.7914 7.92839 10.7914 7.66618C10.7914 7.40397 10.5794 7.19164 10.3178 7.19164H9.99634C9.9341 7.19156 9.87249 7.17923 9.81501 7.15534C9.75754 7.13145 9.70533 7.09647 9.66138 7.05241C9.61742 7.00834 9.58257 6.95605 9.55882 6.89852C9.53508 6.84099 9.52289 6.77934 9.52297 6.7171C9.52297 6.45489 9.73501 6.24256 9.99634 6.24256H10.1571C10.4744 6.24256 10.6156 6.29272 10.7462 6.40268M7.44922 6.95889C7.44922 6.5631 7.77005 6.24256 8.16555 6.24256C8.56105 6.24256 8.88189 6.56339 8.88189 6.95889V7.42439C8.88189 7.81989 8.56105 8.14072 8.16555 8.14072C7.97557 8.14072 7.79337 8.06525 7.65903 7.93091C7.52469 7.79658 7.44922 7.61437 7.44922 7.42439M7.44922 8.14072V5.27539" stroke="#1A1A1A" stroke-width="0.5" stroke-linecap="round" stroke-linejoin="round"/>
</svg>
