<svg width="14" height="14" viewBox="0 0 14 14" fill="none" xmlns="http://www.w3.org/2000/svg">
<path d="M3.73288 2.77737C4.60224 1.9254 5.77268 1.45094 6.98988 1.45709C8.20709 1.46324 9.37268 1.9495 10.2334 2.8102C11.0941 3.6709 11.5803 4.8365 11.5865 6.0537C11.5926 7.2709 11.1182 8.44135 10.2662 9.3107L7.82438 11.7525C7.6056 11.9712 7.30891 12.0941 6.99955 12.0941C6.69019 12.0941 6.3935 11.9712 6.17472 11.7525L3.73288 9.3107C2.86657 8.44429 2.37988 7.26925 2.37988 6.04403C2.37988 4.81881 2.86657 3.64377 3.73288 2.77737Z" stroke="#FFA300" stroke-linejoin="round"/>
<path d="M7 7.79492C7.9665 7.79492 8.75 7.01142 8.75 6.04492C8.75 5.07842 7.9665 4.29492 7 4.29492C6.0335 4.29492 5.25 5.07842 5.25 6.04492C5.25 7.01142 6.0335 7.79492 7 7.79492Z" stroke="#FFA300" stroke-linecap="round" stroke-linejoin="round"/>
</svg>
