<svg width="14" height="14" viewBox="0 0 14 14" fill="none" xmlns="http://www.w3.org/2000/svg">
<g clip-path="url(#clip0_232_6349)">
<path d="M6.42108 12.2487H5.60324C3.51199 12.2487 2.46666 12.2487 1.81683 11.5866C1.16699 10.9245 1.16699 9.85878 1.16699 7.72786C1.16699 5.59695 1.16699 4.5312 1.81683 3.86911C2.46666 3.20703 3.51199 3.20703 5.60324 3.20703H7.82166C9.91291 3.20703 10.9588 3.20703 11.6087 3.86911C12.1086 4.37836 12.2235 5.12678 12.2503 6.41536" stroke="#1A1A1A" stroke-linecap="round" stroke-linejoin="round"/>
<path d="M9.33398 3.20768L9.27565 3.02685C8.9869 2.12852 8.84282 1.67935 8.49923 1.42268C8.15507 1.16602 7.6989 1.16602 6.78482 1.16602H6.6314C5.71848 1.16602 5.26173 1.16602 4.91815 1.42268C4.57398 1.67935 4.4299 2.12852 4.14115 3.02685L4.08398 3.20768M9.98207 7.73143C10.09 7.63227 10.1437 7.58268 10.209 7.58268C10.2743 7.58268 10.328 7.63227 10.4359 7.73143L10.8518 8.11468C10.902 8.16077 10.9271 8.1841 10.958 8.19518C10.9895 8.20685 11.0233 8.20568 11.0922 8.20277L11.6533 8.1806C11.798 8.17477 11.8703 8.17243 11.9199 8.21385C11.9695 8.25527 11.9794 8.32702 11.9987 8.47052L12.0757 9.04568C12.085 9.11218 12.0891 9.14485 12.1054 9.17402C12.1217 9.20202 12.148 9.22243 12.2005 9.26385L12.6532 9.61968C12.7652 9.70835 12.8212 9.7521 12.8322 9.8151C12.8433 9.8781 12.8054 9.93877 12.7307 10.0601L12.4239 10.5542C12.3889 10.6108 12.3714 10.6393 12.3656 10.6708C12.3597 10.7023 12.3667 10.7356 12.3807 10.8009L12.5027 11.3714C12.5318 11.5114 12.547 11.5814 12.5149 11.6374C12.4828 11.6934 12.4146 11.7156 12.2787 11.7599L11.7385 11.9355C11.6743 11.9565 11.6417 11.967 11.6166 11.988C11.5915 12.0096 11.5757 12.0399 11.5448 12.1L11.2812 12.6081C11.2141 12.7382 11.1802 12.8029 11.119 12.8251C11.0577 12.8473 10.9907 12.8193 10.8553 12.7633L10.3373 12.5486C10.2737 12.5223 10.2422 12.5089 10.209 12.5089C10.1757 12.5089 10.1442 12.5223 10.0807 12.5486L9.56265 12.7633C9.42732 12.8193 9.36023 12.8473 9.29898 12.8251C9.23773 12.8029 9.2039 12.7376 9.13682 12.6081L8.87315 12.1C8.84165 12.0399 8.82648 12.0096 8.8014 11.9886C8.77632 11.9676 8.74365 11.9565 8.67948 11.9361L8.13932 11.7599C8.0034 11.7156 7.93515 11.6934 7.90307 11.6374C7.87098 11.5814 7.88557 11.512 7.91532 11.3714L8.03782 10.8009C8.05123 10.7356 8.05823 10.7029 8.0524 10.6714C8.04044 10.6292 8.02065 10.5897 7.99407 10.5548L7.68782 10.0601C7.61198 9.93877 7.57465 9.8781 7.58573 9.8151C7.59682 9.7521 7.65282 9.70835 7.76482 9.62027L8.21748 9.26443C8.26998 9.22243 8.29623 9.20202 8.31257 9.17343C8.3289 9.14485 8.33298 9.11218 8.34173 9.0451L8.41932 8.47052C8.43857 8.3276 8.44848 8.25527 8.49807 8.21385C8.54765 8.17243 8.61998 8.17477 8.76465 8.1806L9.3264 8.20277C9.39465 8.20568 9.42848 8.20685 9.45998 8.19518C9.4909 8.18352 9.51598 8.16077 9.56615 8.11468L9.98207 7.73143Z" stroke="#1A1A1A" stroke-linecap="round" stroke-linejoin="round"/>
</g>
<defs>
<clipPath id="clip0_232_6349">
<rect width="14" height="14" fill="white"/>
</clipPath>
</defs>
</svg>
