<svg width="17" height="16" viewBox="0 0 17 16" fill="none" xmlns="http://www.w3.org/2000/svg">
<path d="M6.05751 5.49095L7.78951 2.00295C7.83993 1.90201 7.91747 1.81711 8.01344 1.75777C8.1094 1.69843 8.22001 1.66699 8.33284 1.66699C8.44568 1.66699 8.55628 1.69843 8.65225 1.75777C8.74822 1.81711 8.82576 1.90201 8.87617 2.00295L10.6082 5.49095L14.4802 6.05362C14.5919 6.06911 14.6969 6.11568 14.7834 6.18803C14.8699 6.26037 14.9343 6.35558 14.9693 6.46277C15.0042 6.56996 15.0084 6.68483 14.9812 6.79426C14.954 6.90368 14.8966 7.00326 14.8155 7.08162L12.0142 9.79495L12.6755 13.6283C12.7602 14.1203 12.2402 14.495 11.7955 14.263L8.33284 12.4523L4.86951 14.263C4.42551 14.4956 3.90551 14.1203 3.99017 13.6276L4.65151 9.79429L1.85017 7.08095C1.7695 7.00254 1.71244 6.90306 1.68548 6.79383C1.65853 6.6846 1.66276 6.57 1.69769 6.46305C1.73262 6.3561 1.79685 6.2611 1.88309 6.18884C1.96932 6.11658 2.0741 6.06997 2.18551 6.05429L6.05751 5.49095Z" stroke="white" stroke-linecap="round" stroke-linejoin="round"/>
</svg>
