<svg width="11" height="10" viewBox="0 0 11 10" fill="none" xmlns="http://www.w3.org/2000/svg">
<path d="M5.94815 0.351528C5.82626 0.130217 5.62988 0.0130463 5.35902 0C5.1017 0.0130463 4.90532 0.130217 4.76989 0.351528L3.46975 2.9294L0.544434 3.35905C0.287115 3.39811 0.117825 3.53481 0.0365666 3.76916C-0.0446924 4.01653 0.00948003 4.23136 0.199084 4.41363L2.31181 6.42515L1.80395 9.27644C1.77686 9.52381 1.86489 9.72561 2.06804 9.88185C2.28473 10.0251 2.51496 10.0381 2.75874 9.92091L5.35902 8.59291L7.97962 9.92091C8.20988 10.0381 8.43331 10.0251 8.65 9.88185C8.86669 9.72561 8.95476 9.52381 8.91409 9.27644L8.42654 6.42515L10.5393 4.41363C10.7153 4.23136 10.7695 4.01653 10.7018 3.76916C10.607 3.53481 10.431 3.39811 10.1736 3.35905L7.24829 2.9294L5.94815 0.351528Z" fill="#FFA300"/>
</svg>