<svg width="12" height="12" viewBox="0 0 12 12" fill="none" xmlns="http://www.w3.org/2000/svg">
<path d="M3.90022 9.71615L6.00022 8.44948L8.10022 9.73281L7.55022 7.33281L9.40022 5.73281L6.96689 5.51615L6.00022 3.24948L5.03355 5.49948L2.60022 5.71615L4.45022 7.33281L3.90022 9.71615ZM6.00022 10.0161L3.23355 11.6828C3.11133 11.7606 2.98355 11.7939 2.85022 11.7828C2.71689 11.7717 2.60022 11.7273 2.50022 11.6495C2.40022 11.5717 2.32244 11.4746 2.26689 11.3581C2.21133 11.2417 2.20022 11.111 2.23355 10.9661L2.96689 7.81615L0.516886 5.69948C0.405775 5.59948 0.336442 5.48548 0.308886 5.35748C0.28133 5.22948 0.289553 5.10459 0.333553 4.98281C0.377553 4.86103 0.444219 4.76103 0.533553 4.68281C0.622886 4.60459 0.745108 4.55459 0.900219 4.53281L4.13355 4.24948L5.38355 1.28281C5.43911 1.14948 5.52533 1.04948 5.64222 0.982812C5.75911 0.916146 5.87844 0.882812 6.00022 0.882812C6.122 0.882813 6.24133 0.916146 6.35822 0.982812C6.47511 1.04948 6.56133 1.14948 6.61689 1.28281L7.86689 4.24948L11.1002 4.53281C11.2558 4.55503 11.378 4.60503 11.4669 4.68281C11.5558 4.76059 11.6224 4.86059 11.6669 4.98281C11.7113 5.10503 11.7198 5.23015 11.6922 5.35815C11.6647 5.48615 11.5951 5.59992 11.4836 5.69948L9.03355 7.81615L9.76689 10.9661C9.80022 11.1106 9.78911 11.2413 9.73355 11.3581C9.678 11.475 9.60022 11.5721 9.50022 11.6495C9.40022 11.7268 9.28355 11.7713 9.15022 11.7828C9.01689 11.7944 8.88911 11.761 8.76689 11.6828L6.00022 10.0161Z" fill="#FFA300"/>
</svg>
