<svg width="12" height="12" viewBox="0 0 12 12" fill="none" xmlns="http://www.w3.org/2000/svg">
<g clip-path="url(#clip0_155_1017)">
<path fill-rule="evenodd" clip-rule="evenodd" d="M6.53694 0.23619C6.46707 0.164527 6.38356 0.107573 6.29133 0.0686862C6.19911 0.0297993 6.10003 0.00976562 5.99994 0.00976562C5.89985 0.00976562 5.80077 0.0297993 5.70855 0.0686862C5.61632 0.107573 5.53281 0.164527 5.46294 0.23619L4.98444 0.72744C4.89026 0.824207 4.7717 0.893751 4.64128 0.928733C4.51085 0.963715 4.37341 0.962836 4.24344 0.92619L3.58344 0.74019C3.4871 0.713081 3.38632 0.705526 3.28702 0.71797C3.18772 0.730414 3.09191 0.762606 3.00524 0.812649C2.91858 0.862693 2.8428 0.929575 2.78238 1.00936C2.72196 1.08914 2.67812 1.1802 2.65344 1.27719L2.48394 1.94169C2.45071 2.0725 2.38279 2.19192 2.28736 2.28736C2.19192 2.38279 2.0725 2.45071 1.94169 2.48394L1.27719 2.65269C1.1802 2.67737 1.08914 2.72121 1.00936 2.78163C0.929575 2.84205 0.862693 2.91783 0.812649 3.00449C0.762606 3.09116 0.730414 3.18697 0.71797 3.28627C0.705526 3.38557 0.713081 3.48635 0.74019 3.58269L0.92619 4.24344C0.962836 4.37341 0.963715 4.51085 0.928733 4.64128C0.893751 4.7717 0.824207 4.89026 0.72744 4.98444L0.23619 5.46294C0.164527 5.53281 0.107573 5.61632 0.0686862 5.70855C0.0297993 5.80077 0.00976562 5.89985 0.00976562 5.99994C0.00976562 6.10003 0.0297993 6.19911 0.0686862 6.29133C0.107573 6.38356 0.164527 6.46707 0.23619 6.53694L0.72744 7.01619C0.824075 7.1103 0.89354 7.22873 0.928518 7.35901C0.963496 7.48928 0.962692 7.62658 0.92619 7.75644L0.74019 8.41644C0.713081 8.51278 0.705526 8.61356 0.71797 8.71286C0.730414 8.81216 0.762606 8.90797 0.812649 8.99464C0.862693 9.0813 0.929575 9.15708 1.00936 9.2175C1.08914 9.27792 1.1802 9.32176 1.27719 9.34644L1.94169 9.51594C2.0725 9.54917 2.19192 9.61708 2.28736 9.71252C2.38279 9.80796 2.45071 9.92738 2.48394 10.0582L2.65269 10.7227C2.67729 10.8197 2.72107 10.9109 2.78145 10.9908C2.84184 11.0706 2.9176 11.1376 3.00428 11.1877C3.09095 11.2378 3.18679 11.2701 3.28613 11.2826C3.38547 11.2951 3.4863 11.2875 3.58269 11.2604L4.24344 11.0744C4.37334 11.0377 4.51075 11.0367 4.64117 11.0716C4.77158 11.1064 4.89018 11.1758 4.98444 11.2724L5.46294 11.7637C5.53281 11.8354 5.61632 11.8923 5.70855 11.9312C5.80077 11.9701 5.89985 11.9901 5.99994 11.9901C6.10003 11.9901 6.19911 11.9701 6.29133 11.9312C6.38356 11.8923 6.46707 11.8354 6.53694 11.7637L7.01619 11.2724C7.11038 11.1759 7.22885 11.1066 7.35912 11.0718C7.48939 11.0369 7.62665 11.0378 7.75644 11.0744L8.41644 11.2604C8.51283 11.2875 8.61366 11.2951 8.713 11.2826C8.81234 11.2701 8.90818 11.2378 8.99485 11.1877C9.08153 11.1376 9.15729 11.0706 9.21768 10.9908C9.27806 10.9109 9.32184 10.8197 9.34644 10.7227L9.51594 10.0582C9.54917 9.92738 9.61708 9.80796 9.71252 9.71252C9.80796 9.61708 9.92738 9.54917 10.0582 9.51594L10.7227 9.34719C10.8197 9.32259 10.9109 9.27881 10.9908 9.21843C11.0706 9.15804 11.1376 9.08228 11.1877 8.9956C11.2378 8.90893 11.2701 8.81309 11.2826 8.71375C11.2951 8.61441 11.2875 8.51358 11.2604 8.41719L11.0744 7.75719C11.0377 7.62729 11.0367 7.48988 11.0716 7.35946C11.1064 7.22905 11.1758 7.11045 11.2724 7.01619L11.7637 6.53694C11.8354 6.46707 11.8923 6.38356 11.9312 6.29133C11.9701 6.19911 11.9901 6.10003 11.9901 5.99994C11.9901 5.89985 11.9701 5.80077 11.9312 5.70855C11.8923 5.61632 11.8354 5.53281 11.7637 5.46294L11.2724 4.98444C11.1758 4.89018 11.1064 4.77158 11.0716 4.64117C11.0367 4.51075 11.0377 4.37334 11.0744 4.24344L11.2604 3.58344C11.2875 3.48705 11.2951 3.38622 11.2826 3.28688C11.2701 3.18754 11.2378 3.0917 11.1877 3.00503C11.1376 2.91835 11.0706 2.84259 10.9908 2.7822C10.9109 2.72182 10.8197 2.67804 10.7227 2.65344L10.0582 2.48394C9.92738 2.45071 9.80796 2.38279 9.71252 2.28736C9.61708 2.19192 9.54917 2.0725 9.51594 1.94169L9.34719 1.27719C9.32251 1.1802 9.27867 1.08914 9.21825 1.00936C9.15783 0.929575 9.08206 0.862693 8.99539 0.812649C8.90872 0.762606 8.81291 0.730414 8.71361 0.71797C8.61431 0.705526 8.51353 0.713081 8.41719 0.74019L7.75719 0.92619C7.62712 0.962981 7.48952 0.963934 7.35895 0.928948C7.22838 0.893963 7.10969 0.824338 7.01544 0.72744L6.53694 0.23619ZM8.82969 4.71744C8.9371 4.61381 8.99895 4.47175 9.00162 4.32252C9.00429 4.17328 8.94757 4.0291 8.84394 3.92169C8.74031 3.81428 8.59825 3.75243 8.44902 3.74976C8.29978 3.74709 8.1556 3.80381 8.04819 3.90744L4.94769 6.90144L3.95994 5.91519C3.85422 5.80977 3.71095 5.75066 3.56164 5.75087C3.41234 5.75108 3.26924 5.81059 3.16382 5.91632C3.05839 6.02204 2.99928 6.16531 2.99949 6.31461C2.99971 6.46391 3.05922 6.60702 3.16494 6.71244L4.54419 8.08794C4.64835 8.19201 4.78917 8.25109 4.93641 8.25249C5.08365 8.2539 5.22556 8.19751 5.33169 8.09544L8.82969 4.71744Z" fill="#FFC61B"/>
</g>
<defs>
<clipPath id="clip0_155_1017">
<rect width="12" height="12" fill="white"/>
</clipPath>
</defs>
</svg>
