<svg width="16" height="16" viewBox="0 0 16 16" fill="none" xmlns="http://www.w3.org/2000/svg">
<path d="M4 5.33398H6.66667" stroke="white" stroke-linecap="round" stroke-linejoin="round"/>
<path d="M13.8887 6H12.154C10.964 6 10 6.89533 10 8C10 9.10467 10.9647 10 12.1533 10H13.8887C13.9447 10 13.972 10 13.9953 9.99867C14.3553 9.97667 14.642 9.71067 14.6653 9.37667C14.6667 9.35533 14.6667 9.32933 14.6667 9.278V6.722C14.6667 6.67067 14.6667 6.64467 14.6653 6.62333C14.6413 6.28933 14.3553 6.02333 13.9953 6.00133C13.9727 6 13.9447 6 13.8887 6Z" stroke="white"/>
<path d="M13.9773 6.00033C13.9253 4.75233 13.7587 3.98699 13.2193 3.44833C12.4387 2.66699 11.1813 2.66699 8.66732 2.66699H6.66732C4.15332 2.66699 2.89598 2.66699 2.11532 3.44833C1.33465 4.22966 1.33398 5.48633 1.33398 8.00033C1.33398 10.5143 1.33398 11.7717 2.11532 12.5523C2.89665 13.333 4.15332 13.3337 6.66732 13.3337H8.66732C11.1813 13.3337 12.4387 13.3337 13.2193 12.5523C13.7587 12.0137 13.926 11.2483 13.9773 10.0003" stroke="white"/>
<path d="M11.9941 8H12.0008" stroke="white" stroke-linecap="round" stroke-linejoin="round"/>
</svg>
