<svg width="16" height="16" viewBox="0 0 16 16" fill="none" xmlns="http://www.w3.org/2000/svg">
<path d="M1.687 9.84732C1.545 10.7767 2.179 11.4213 2.955 11.7427C5.93033 12.976 10.0703 12.976 13.0457 11.7427C13.8217 11.4213 14.4557 10.776 14.3137 9.84732C14.227 9.27598 13.7957 8.80065 13.4763 8.33598C13.0583 7.71998 13.017 7.04865 13.0163 6.33398C13.017 3.57265 10.7717 1.33398 8.00033 1.33398C5.229 1.33398 2.98366 3.57265 2.98366 6.33398C2.98366 7.04865 2.94233 7.72065 2.52366 8.33598C2.205 8.80065 1.77433 9.27598 1.687 9.84732Z" stroke="#1A1A1A" stroke-linecap="round" stroke-linejoin="round"/>
<path d="M5.33398 12.668C5.63932 13.818 6.71798 14.668 8.00065 14.668C9.28398 14.668 10.3613 13.818 10.6673 12.668" stroke="#1A1A1A" stroke-linecap="round" stroke-linejoin="round"/>
</svg>
