<svg width="27" height="33" viewBox="0 0 27 33" fill="none" xmlns="http://www.w3.org/2000/svg">
<path d="M6.87324 13.2619C9.51507 12.6268 12.6696 10.46 14.1003 9.57632C14.2338 9.49387 14.4024 9.58941 14.4053 9.74628L14.7027 25.7542C14.7051 25.8842 14.5878 25.9838 14.4599 25.9603L8.21336 24.812C8.03161 24.7786 7.84919 24.4316 7.86859 24.2478C8.05228 22.5078 7.17218 16.5656 6.71364 13.4928C6.69761 13.3854 6.76767 13.2872 6.87324 13.2619Z" fill="#FFA300"/>
<path d="M14.9127 26.2631L6.19221 24.7509C6.09145 24.7334 6.01893 24.647 6.02036 24.5447C6.06117 21.6291 5.17942 15.4066 4.70291 12.4702C4.68883 12.3834 4.73172 12.2998 4.80918 12.2582L14.5527 7.03125M14.9127 26.2631L26.118 23.1702C26.2109 23.1446 26.2736 23.0607 26.269 22.9645C26.0946 19.3689 25.9106 12.4807 26.4185 10.8413C26.4603 10.7066 26.3948 10.5396 26.2591 10.5008C22.5695 9.44535 15.4754 7.3923 14.5527 7.03125M14.9127 26.2631L14.5527 7.03125" stroke="black" stroke-width="1.02844"/>
<path d="M8.17773 7.18645C8.34228 5.3764 9.24046 3.31266 9.66897 2.50705L10.2346 2.14709L12.1372 1.94141L13.8342 2.96985L14.1427 3.63833L10.4403 6.05517L8.17773 7.75209V7.18645Z" fill="#FFA300"/>
<path d="M9.46185 2.24964C9.71731 2.08631 10.0573 1.9236 10.4468 1.81055C16.4679 -0.615325 19.6198 2.96727 20.4662 5.1807L14.4498 3.63804C13.3307 1.58632 11.6517 1.46089 10.4468 1.81055C10.1266 1.93955 9.79835 2.08555 9.46185 2.24964Z" fill="#FFA300"/>
<path d="M7.76492 7.85464C7.90205 6.58623 8.43341 3.68946 9.46185 2.24964M9.46185 2.24964C10.5074 1.58116 12.9688 0.922955 14.4498 3.63804M9.46185 2.24964C16.1261 -1.00023 19.5748 2.84957 20.4662 5.1807L14.4498 3.63804M14.4498 3.63804L7.50781 8.16317" stroke="black" stroke-width="1.02844"/>
<path d="M18.7259 10.7968L18.2039 10.9272C18.0737 10.9598 18.0101 11.1077 18.0673 11.2292C18.8611 12.9163 17.6786 13.2654 16.7914 13.2231C16.6675 13.2172 16.5586 13.3126 16.5586 13.4367V15.2404C16.5586 15.2861 16.5738 15.3305 16.6019 15.3666L16.8503 15.686C16.8929 15.7407 16.9614 15.7703 17.0305 15.7643C18.6669 15.6215 19.0881 15.377 19.1022 15.225C19.1067 15.177 19.0777 15.1303 19.0765 15.0821L18.9814 10.9915C18.9783 10.8597 18.8538 10.7648 18.7259 10.7968Z" fill="black"/>
<path d="M24.1587 12.6107L23.5509 12.7843C23.4392 12.8162 23.3769 12.9345 23.4064 13.0468C23.6733 14.0638 23.359 14.6343 22.7695 14.6604C22.6413 14.6661 22.5242 14.7604 22.5243 14.8887L22.5247 15.6667C22.5248 15.7338 22.5575 15.7966 22.6125 15.8351L23.039 16.1337C23.7075 16.4936 23.9646 16.5977 24.1189 16.5977C24.3423 16.5977 24.3423 16.4936 24.3423 16.3135L24.4208 12.8131C24.4239 12.6746 24.2919 12.5727 24.1587 12.6107Z" fill="black"/>
<path d="M19.3855 19.7327C21.8126 20.2263 23.5164 18.9442 24.0649 18.2414C24.1853 18.0872 24.6303 18.0357 24.4246 18.6014C24.2199 19.1643 23.5162 20.0241 23.1391 20.3497C22.81 20.3909 22.4192 21.0868 22.2649 21.4296C21.4833 22.7871 19.7452 22.7837 18.9739 22.6123C18.4426 22.458 17.2977 21.9027 16.9686 20.9154C16.6395 19.9281 16.6944 18.7214 16.7629 18.2414C17.0098 17.6244 17.2772 17.7786 17.38 17.9329C17.5446 19.3316 18.7855 19.7155 19.3855 19.7327Z" fill="black"/>
<path d="M14.3216 27.2962C14.3387 27.294 14.356 27.2941 14.373 27.2963L20.7536 28.113C20.7679 28.1148 20.7819 28.1181 20.7955 28.1229L25.1979 29.666C25.3827 29.7308 25.3811 29.9926 25.1955 30.0551L20.4151 31.6638L13.7189 32.9929C13.6924 32.9981 13.6652 32.9981 13.6388 32.9929L7.72953 31.8212C7.71912 31.8191 7.70888 31.8163 7.69891 31.8126L3.4309 30.2523C3.25438 30.1877 3.24974 29.9398 3.42372 29.8687L7.68856 28.1261C7.70537 28.1192 7.72302 28.1146 7.74104 28.1124L14.3216 27.2962Z" fill="#FFA300"/>
<path d="M11.5185 25.9049L10.7472 27.139L7.71332 26.8305L6.58203 28.7331M17.792 25.5449L19.6432 26.4705L20.3631 28.3731L22.42 27.6018" stroke="black" stroke-width="1.23413" stroke-linecap="round" stroke-linejoin="round"/>
<path d="M3.0339 14.1279C3.19845 13.4697 2.96533 12.7567 2.82821 12.4824L0 13.0481C0.0822752 13.6651 0.582783 14.2308 0.822752 14.4365L3.0339 14.1279Z" fill="black"/>
<path d="M3.44305 19.2342C3.73084 18.6198 3.63887 17.8752 3.55691 17.5798L0.672719 17.5922C0.635069 18.2136 1.01775 18.8648 1.21379 19.1127L3.44305 19.2342Z" fill="black"/>
<path d="M3.83825 24.1334C4.17056 23.5419 4.13374 22.7926 4.07379 22.4919L1.19653 22.2917C1.11317 22.9086 1.44679 23.5862 1.62402 23.8479L3.83825 24.1334Z" fill="black"/>
</svg>
