<svg width="99" height="24" viewBox="0 0 99 24" fill="none" xmlns="http://www.w3.org/2000/svg">
<rect width="99" height="24" rx="12" fill="#FEF3C7"/>
<path d="M20.1865 13.0049V16.0068C20.1865 16.071 20.1647 16.1235 20.1209 16.1643C20.0772 16.2052 20.0262 16.2256 19.9679 16.2256C19.9271 16.2256 19.8892 16.2168 19.8543 16.1993L18.0005 15.0878L16.1468 16.1993C16.0943 16.2285 16.039 16.2358 15.9807 16.2212C15.9224 16.2066 15.8787 16.1731 15.8495 16.1206C15.8262 16.0856 15.8145 16.0476 15.8145 16.0068V13.0049C15.4065 12.6781 15.0888 12.2814 14.8614 11.8146C14.6224 11.3303 14.5029 10.8169 14.5029 10.2742C14.5029 9.63826 14.6632 9.04896 14.9838 8.50633C15.2928 7.97538 15.7096 7.55528 16.2342 7.24605C16.7764 6.93097 17.3651 6.77344 18.0005 6.77344C18.6359 6.77344 19.2247 6.93097 19.7668 7.24605C20.2915 7.55528 20.7083 7.97538 21.0172 8.50633C21.3378 9.04896 21.4981 9.63826 21.4981 10.2742C21.4981 10.8169 21.3786 11.3303 21.1396 11.8146C20.9123 12.2814 20.5946 12.6781 20.1865 13.0049ZM18.0005 12.8998C18.4727 12.8998 18.9128 12.7802 19.3209 12.541C19.7173 12.3076 20.0321 11.9925 20.2652 11.5958C20.5042 11.1874 20.6237 10.7454 20.6237 10.2699C20.6237 9.79434 20.5042 9.35236 20.2652 8.94393C20.0321 8.54718 19.7173 8.23502 19.3209 8.00747C18.9128 7.76825 18.4727 7.64864 18.0005 7.64864C17.5284 7.64864 17.0882 7.76825 16.6802 8.00747C16.2838 8.23502 15.969 8.54718 15.7358 8.94393C15.4968 9.35236 15.3773 9.79434 15.3773 10.2699C15.3773 10.7454 15.4968 11.1874 15.7358 11.5958C15.969 11.9925 16.2838 12.3076 16.6802 12.541C17.0882 12.7802 17.5284 12.8998 18.0005 12.8998ZM18.0005 12.0246C17.6857 12.0246 17.3943 11.9459 17.1261 11.7883C16.858 11.6308 16.6452 11.4178 16.4878 11.1494C16.3304 10.881 16.2517 10.5879 16.2517 10.2699C16.2517 9.95187 16.3304 9.65868 16.4878 9.39029C16.6452 9.12189 16.858 8.91039 17.1261 8.75577C17.3943 8.60115 17.6857 8.52384 18.0005 8.52384C18.3153 8.52384 18.6068 8.60115 18.8749 8.75577C19.1431 8.91039 19.3558 9.12189 19.5132 9.39029C19.6706 9.65868 19.7493 9.95187 19.7493 10.2699C19.7493 10.5879 19.6706 10.881 19.5132 11.1494C19.3558 11.4178 19.1431 11.6308 18.8749 11.7883C18.6068 11.9459 18.3153 12.0246 18.0005 12.0246Z" fill="#92400E"/>
<path d="M30.5284 8.40625V7.27273H37.2827V8.40625H34.5597V16H33.2472V8.40625H30.5284ZM40.4808 16.1321C39.8672 16.1321 39.3317 15.9915 38.8743 15.7102C38.4169 15.429 38.0618 15.0355 37.8089 14.5298C37.5561 14.0241 37.4297 13.4332 37.4297 12.7571C37.4297 12.0781 37.5561 11.4844 37.8089 10.9759C38.0618 10.4673 38.4169 10.0724 38.8743 9.79119C39.3317 9.50994 39.8672 9.36932 40.4808 9.36932C41.0945 9.36932 41.63 9.50994 42.0874 9.79119C42.5447 10.0724 42.8999 10.4673 43.1527 10.9759C43.4055 11.4844 43.532 12.0781 43.532 12.7571C43.532 13.4332 43.4055 14.0241 43.1527 14.5298C42.8999 15.0355 42.5447 15.429 42.0874 15.7102C41.63 15.9915 41.0945 16.1321 40.4808 16.1321ZM40.4851 15.0625C40.8828 15.0625 41.2124 14.9574 41.4737 14.7472C41.7351 14.5369 41.9283 14.2571 42.0533 13.9077C42.1811 13.5582 42.245 13.1733 42.245 12.7528C42.245 12.3352 42.1811 11.9517 42.0533 11.6023C41.9283 11.25 41.7351 10.9673 41.4737 10.7543C41.2124 10.5412 40.8828 10.4347 40.4851 10.4347C40.0845 10.4347 39.7521 10.5412 39.4879 10.7543C39.2266 10.9673 39.032 11.25 38.9041 11.6023C38.7791 11.9517 38.7166 12.3352 38.7166 12.7528C38.7166 13.1733 38.7791 13.5582 38.9041 13.9077C39.032 14.2571 39.2266 14.5369 39.4879 14.7472C39.7521 14.9574 40.0845 15.0625 40.4851 15.0625ZM44.9542 18.4545V9.45455H46.1985V10.5156H46.305C46.3789 10.3793 46.4854 10.2216 46.6246 10.0426C46.7638 9.86364 46.957 9.70739 47.2042 9.57386C47.4513 9.4375 47.7781 9.36932 48.1843 9.36932C48.7127 9.36932 49.1843 9.50284 49.5991 9.76989C50.0138 10.0369 50.3391 10.4219 50.5749 10.9247C50.8136 11.4276 50.9329 12.0327 50.9329 12.7401C50.9329 13.4474 50.815 14.054 50.5792 14.5597C50.3434 15.0625 50.0195 15.4503 49.6076 15.723C49.1957 15.9929 48.7255 16.1278 48.1971 16.1278C47.7994 16.1278 47.4741 16.0611 47.2212 15.9276C46.9712 15.794 46.7752 15.6378 46.6332 15.4588C46.4911 15.2798 46.3817 15.1207 46.305 14.9815H46.2283V18.4545H44.9542ZM46.2028 12.7273C46.2028 13.1875 46.2695 13.5909 46.4031 13.9375C46.5366 14.2841 46.7298 14.5554 46.9826 14.7514C47.2354 14.9446 47.5451 15.0412 47.9116 15.0412C48.2923 15.0412 48.6104 14.9403 48.8661 14.7386C49.1218 14.5341 49.315 14.2571 49.4457 13.9077C49.5792 13.5582 49.646 13.1648 49.646 12.7273C49.646 12.2955 49.5806 11.9077 49.4499 11.5639C49.3221 11.2202 49.1289 10.9489 48.8704 10.75C48.6147 10.5511 48.2951 10.4517 47.9116 10.4517C47.5423 10.4517 47.2298 10.5469 46.9741 10.7372C46.7212 10.9276 46.5295 11.1932 46.3988 11.5341C46.2681 11.875 46.2028 12.2727 46.2028 12.7273ZM55.6385 16V7.27273H58.7493C59.4254 7.27273 59.9865 7.3892 60.4325 7.62216C60.8814 7.85511 61.2166 8.17756 61.4382 8.58949C61.6598 8.99858 61.7706 9.47159 61.7706 10.0085C61.7706 10.5426 61.6584 11.0128 61.4339 11.419C61.2124 11.8224 60.8771 12.1364 60.4283 12.3608C59.9822 12.5852 59.4212 12.6974 58.745 12.6974H56.3885V11.5639H58.6257C59.0518 11.5639 59.3984 11.5028 59.6655 11.3807C59.9354 11.2585 60.1328 11.081 60.2578 10.848C60.3828 10.6151 60.4453 10.3352 60.4453 10.0085C60.4453 9.67898 60.3814 9.39347 60.2536 9.15199C60.1286 8.91051 59.9311 8.72585 59.6612 8.59801C59.3942 8.46733 59.0433 8.40199 58.6087 8.40199H56.9553V16H55.6385ZM59.9467 12.0625L62.103 16H60.603L58.4893 12.0625H59.9467ZM65.1754 16.1449C64.7607 16.1449 64.3857 16.0682 64.0504 15.9148C63.7152 15.7585 63.4496 15.5327 63.2536 15.2372C63.0604 14.9418 62.9638 14.5795 62.9638 14.1506C62.9638 13.7812 63.0348 13.4773 63.1768 13.2386C63.3189 13 63.5107 12.8111 63.7521 12.6719C63.9936 12.5327 64.2635 12.4276 64.5618 12.3565C64.8601 12.2855 65.1641 12.2315 65.4737 12.1946C65.8658 12.1491 66.1839 12.1122 66.4283 12.0838C66.6726 12.0526 66.8501 12.0028 66.9609 11.9347C67.0717 11.8665 67.1271 11.7557 67.1271 11.6023V11.5724C67.1271 11.2003 67.022 10.9119 66.8118 10.7074C66.6044 10.5028 66.2947 10.4006 65.8828 10.4006C65.4538 10.4006 65.1158 10.4957 64.8686 10.6861C64.6243 10.8736 64.4553 11.0824 64.3615 11.3125L63.1641 11.0398C63.3061 10.642 63.5135 10.321 63.7862 10.0767C64.0618 9.82955 64.3786 9.65057 64.7365 9.53977C65.0945 9.42614 65.4709 9.36932 65.8658 9.36932C66.1271 9.36932 66.4041 9.40057 66.6967 9.46307C66.9922 9.52273 67.2678 9.63352 67.5234 9.79545C67.782 9.95739 67.9936 10.1889 68.1584 10.4901C68.3232 10.7884 68.4055 11.1761 68.4055 11.6534V16H67.1612V15.1051H67.1101C67.0277 15.2699 66.9041 15.4318 66.7393 15.5909C66.5746 15.75 66.3629 15.8821 66.1044 15.9872C65.8459 16.0923 65.5362 16.1449 65.1754 16.1449ZM65.4524 15.1222C65.8047 15.1222 66.1058 15.0526 66.3558 14.9134C66.6087 14.7741 66.8004 14.5923 66.9311 14.3679C67.0646 14.1406 67.1314 13.8977 67.1314 13.6392V12.7955C67.0859 12.8409 66.9979 12.8835 66.8672 12.9233C66.7393 12.9602 66.593 12.9929 66.4283 13.0213C66.2635 13.0469 66.103 13.071 65.9467 13.0938C65.7905 13.1136 65.6598 13.1307 65.5547 13.1449C65.3075 13.1761 65.0817 13.2287 64.8771 13.3026C64.6754 13.3764 64.5135 13.483 64.3913 13.6222C64.272 13.7585 64.2124 13.9403 64.2124 14.1676C64.2124 14.483 64.3288 14.7216 64.5618 14.8835C64.7947 15.0426 65.0916 15.1222 65.4524 15.1222ZM73.158 9.45455V10.4773H69.5827V9.45455H73.158ZM70.5415 7.88636H71.8157V14.0781C71.8157 14.3253 71.8526 14.5114 71.9265 14.6364C72.0004 14.7585 72.0955 14.8423 72.212 14.8878C72.3313 14.9304 72.4606 14.9517 72.5998 14.9517C72.7021 14.9517 72.7915 14.9446 72.8683 14.9304C72.945 14.9162 73.0046 14.9048 73.0472 14.8963L73.2773 15.9489C73.2035 15.9773 73.0984 16.0057 72.962 16.0341C72.8256 16.0653 72.6552 16.0824 72.4506 16.0852C72.1154 16.0909 71.8029 16.0312 71.5131 15.9062C71.2234 15.7812 70.989 15.5881 70.81 15.3267C70.631 15.0653 70.5415 14.7372 70.5415 14.3423V7.88636ZM77.3182 16.1321C76.6733 16.1321 76.1179 15.9943 75.652 15.7188C75.1889 15.4403 74.831 15.0497 74.5781 14.5469C74.3281 14.0412 74.2031 13.4489 74.2031 12.7699C74.2031 12.0994 74.3281 11.5085 74.5781 10.9972C74.831 10.4858 75.1832 10.0866 75.6349 9.79972C76.0895 9.51278 76.6207 9.36932 77.2287 9.36932C77.598 9.36932 77.956 9.4304 78.3026 9.55256C78.6491 9.67472 78.9602 9.86648 79.2358 10.1278C79.5114 10.3892 79.7287 10.7287 79.8878 11.1463C80.0469 11.5611 80.1264 12.0653 80.1264 12.6591V13.1108H74.9233V12.1562H78.8778C78.8778 11.821 78.8097 11.5241 78.6733 11.2656C78.5369 11.0043 78.3452 10.7983 78.098 10.6477C77.8537 10.4972 77.5668 10.4219 77.2372 10.4219C76.8793 10.4219 76.5668 10.5099 76.2997 10.6861C76.0355 10.8594 75.831 11.0866 75.6861 11.3679C75.544 11.6463 75.473 11.9489 75.473 12.2756V13.0213C75.473 13.4588 75.5497 13.831 75.7031 14.1378C75.8594 14.4446 76.0767 14.679 76.3551 14.8409C76.6335 15 76.9588 15.0795 77.331 15.0795C77.5724 15.0795 77.7926 15.0455 77.9915 14.9773C78.1903 14.9062 78.3622 14.8011 78.5071 14.6619C78.652 14.5227 78.7628 14.3509 78.8395 14.1463L80.0455 14.3636C79.9489 14.7187 79.7756 15.0298 79.5256 15.2969C79.2784 15.5611 78.9673 15.767 78.5923 15.9148C78.2202 16.0597 77.7955 16.1321 77.3182 16.1321ZM83.9904 16.1278C83.462 16.1278 82.9904 15.9929 82.5756 15.723C82.1637 15.4503 81.8398 15.0625 81.604 14.5597C81.3711 14.054 81.2546 13.4474 81.2546 12.7401C81.2546 12.0327 81.3725 11.4276 81.6083 10.9247C81.8469 10.4219 82.1737 10.0369 82.5884 9.76989C83.0032 9.50284 83.4734 9.36932 83.9989 9.36932C84.4052 9.36932 84.7319 9.4375 84.979 9.57386C85.229 9.70739 85.4222 9.86364 85.5586 10.0426C85.6978 10.2216 85.8058 10.3793 85.8825 10.5156H85.9592V7.27273H87.2333V16H85.989V14.9815H85.8825C85.8058 15.1207 85.695 15.2798 85.5501 15.4588C85.408 15.6378 85.212 15.794 84.962 15.9276C84.712 16.0611 84.3881 16.1278 83.9904 16.1278ZM84.2717 15.0412C84.6381 15.0412 84.9478 14.9446 85.2006 14.7514C85.4563 14.5554 85.6495 14.2841 85.7802 13.9375C85.9137 13.5909 85.9805 13.1875 85.9805 12.7273C85.9805 12.2727 85.9151 11.875 85.7844 11.5341C85.6538 11.1932 85.462 10.9276 85.2092 10.7372C84.9563 10.5469 84.6438 10.4517 84.2717 10.4517C83.8881 10.4517 83.5685 10.5511 83.3129 10.75C83.0572 10.9489 82.864 11.2202 82.7333 11.5639C82.6055 11.9077 82.5415 12.2955 82.5415 12.7273C82.5415 13.1648 82.6069 13.5582 82.7376 13.9077C82.8683 14.2571 83.0614 14.5341 83.3171 14.7386C83.5756 14.9403 83.8938 15.0412 84.2717 15.0412Z" fill="#92400E"/>
</svg>
