<svg width="16" height="16" viewBox="0 0 16 16" fill="none" xmlns="http://www.w3.org/2000/svg">
<g clip-path="url(#clip0_375_2836)">
<path fill-rule="evenodd" clip-rule="evenodd" d="M8.71559 0.314595C8.62243 0.219043 8.51109 0.143105 8.38812 0.0912561C8.26515 0.0394069 8.13305 0.0126953 7.9996 0.0126953C7.86614 0.0126953 7.73404 0.0394069 7.61107 0.0912561C7.4881 0.143105 7.37676 0.219043 7.2836 0.314595L6.6456 0.969595C6.52002 1.09862 6.36194 1.19134 6.18804 1.23799C6.01415 1.28463 5.83088 1.28346 5.6576 1.2346L4.7776 0.986595C4.64915 0.950449 4.51476 0.940375 4.38236 0.956968C4.24996 0.97356 4.12222 1.01648 4.00666 1.08321C3.89111 1.14993 3.79007 1.23911 3.70952 1.34548C3.62896 1.45186 3.5705 1.57328 3.5376 1.70259L3.31159 2.58859C3.26729 2.76301 3.17673 2.92224 3.04949 3.04949C2.92224 3.17673 2.76301 3.26729 2.58859 3.31159L1.70259 3.53659C1.57328 3.5695 1.45186 3.62796 1.34548 3.70852C1.23911 3.78907 1.14993 3.89011 1.08321 4.00566C1.01648 4.12122 0.97356 4.24896 0.956968 4.38136C0.940375 4.51376 0.950449 4.64815 0.986595 4.7766L1.2346 5.6576C1.28346 5.83088 1.28463 6.01415 1.23799 6.18804C1.19134 6.36194 1.09862 6.52002 0.969595 6.6456L0.314595 7.2836C0.219043 7.37676 0.143105 7.4881 0.0912561 7.61107C0.0394069 7.73404 0.0126953 7.86614 0.0126953 7.9996C0.0126953 8.13305 0.0394069 8.26515 0.0912561 8.38812C0.143105 8.51109 0.219043 8.62243 0.314595 8.71559L0.969595 9.35459C1.09844 9.48008 1.19106 9.63799 1.2377 9.81169C1.28434 9.98539 1.28326 10.1685 1.2346 10.3416L0.986595 11.2216C0.950449 11.35 0.940375 11.4844 0.956968 11.6168C0.97356 11.7492 1.01648 11.877 1.08321 11.9925C1.14993 12.1081 1.23911 12.2091 1.34548 12.2897C1.45186 12.3702 1.57328 12.4287 1.70259 12.4616L2.58859 12.6876C2.76301 12.7319 2.92224 12.8225 3.04949 12.9497C3.17673 13.077 3.26729 13.2362 3.31159 13.4106L3.53659 14.2966C3.56939 14.426 3.62777 14.5475 3.70828 14.654C3.78879 14.7605 3.88981 14.8498 4.00538 14.9166C4.12095 14.9834 4.24872 15.0264 4.38118 15.0431C4.51363 15.0598 4.64808 15.0497 4.7766 15.0136L5.6576 14.7656C5.83079 14.7166 6.014 14.7153 6.1879 14.7617C6.36179 14.8082 6.51991 14.9007 6.6456 15.0296L7.2836 15.6846C7.37676 15.7801 7.4881 15.8561 7.61107 15.9079C7.73404 15.9598 7.86614 15.9865 7.9996 15.9865C8.13305 15.9865 8.26515 15.9598 8.38812 15.9079C8.51109 15.8561 8.62243 15.7801 8.71559 15.6846L9.35459 15.0296C9.48018 14.9009 9.63814 14.8085 9.81183 14.762C9.98553 14.7156 10.1685 14.7168 10.3416 14.7656L11.2216 15.0136C11.3501 15.0497 11.4846 15.0598 11.617 15.0431C11.7495 15.0264 11.8772 14.9834 11.9928 14.9166C12.1084 14.8498 12.2094 14.7605 12.2899 14.654C12.3704 14.5475 12.4288 14.426 12.4616 14.2966L12.6876 13.4106C12.7319 13.2362 12.8225 13.077 12.9497 12.9497C13.077 12.8225 13.2362 12.7319 13.4106 12.6876L14.2966 12.4626C14.426 12.4298 14.5475 12.3714 14.654 12.2909C14.7605 12.2104 14.8498 12.1094 14.9166 11.9938C14.9834 11.8782 15.0264 11.7505 15.0431 11.618C15.0598 11.4856 15.0497 11.3511 15.0136 11.2226L14.7656 10.3426C14.7166 10.1694 14.7153 9.98619 14.7617 9.81229C14.8082 9.6384 14.9007 9.48028 15.0296 9.35459L15.6846 8.71559C15.7801 8.62243 15.8561 8.51109 15.9079 8.38812C15.9598 8.26515 15.9865 8.13305 15.9865 7.9996C15.9865 7.86614 15.9598 7.73404 15.9079 7.61107C15.8561 7.4881 15.7801 7.37676 15.6846 7.2836L15.0296 6.6456C14.9007 6.51991 14.8082 6.36179 14.7617 6.1879C14.7153 6.014 14.7166 5.83079 14.7656 5.6576L15.0136 4.7776C15.0497 4.64908 15.0598 4.51463 15.0431 4.38218C15.0264 4.24972 14.9834 4.12195 14.9166 4.00638C14.8498 3.89081 14.7605 3.78979 14.654 3.70928C14.5475 3.62877 14.426 3.57039 14.2966 3.5376L13.4106 3.31159C13.2362 3.26729 13.077 3.17673 12.9497 3.04949C12.8225 2.92224 12.7319 2.76301 12.6876 2.58859L12.4626 1.70259C12.4297 1.57328 12.3712 1.45186 12.2907 1.34548C12.2101 1.23911 12.1091 1.14993 11.9935 1.08321C11.878 1.01648 11.7502 0.97356 11.6178 0.956968C11.4854 0.940375 11.351 0.950449 11.2226 0.986595L10.3426 1.2346C10.1692 1.28365 9.9857 1.28492 9.81161 1.23827C9.63751 1.19162 9.47926 1.09879 9.35359 0.969595L8.71559 0.314595ZM11.7726 6.2896C11.9158 6.15142 11.9983 5.96201 12.0018 5.76303C12.0054 5.56405 11.9298 5.37181 11.7916 5.2286C11.6534 5.08538 11.464 5.00292 11.265 4.99935C11.0661 4.99579 10.8738 5.07142 10.7306 5.2096L6.5966 9.20159L5.2796 7.8866C5.13863 7.74603 4.9476 7.66722 4.74853 7.6675C4.54946 7.66778 4.35866 7.74713 4.2181 7.8881C4.07753 8.02906 3.99872 8.22009 3.999 8.41916C3.99928 8.61823 4.07863 8.80903 4.21959 8.94959L6.0586 10.7836C6.19748 10.9224 6.38524 11.0011 6.58155 11.003C6.77787 11.0049 6.96709 10.9297 7.1086 10.7936L11.7726 6.2896Z" fill="#FFC61B"/>
</g>
<defs>
<clipPath id="clip0_375_2836">
<rect width="16" height="16" fill="white"/>
</clipPath>
</defs>
</svg>
